<svg height="440pt" viewBox="0 0 440.11006 440" width="440pt" xmlns="http://www.w3.org/2000/svg"><path d="m416 208.054688c0 114.875-93.125 208-208 208s-208-93.125-208-208 93.125-208.0000005 208-208.0000005 208 93.1250005 208 208.0000005zm0 0" fill="#ccdce5"/><path d="m344 208.054688c0 75.109374-60.890625 136-136 136s-136-60.890626-136-136c0-75.109376 60.890625-136 136-136s136 60.890624 136 136zm0 0" fill="#aab9c1"/><path d="m318.550781 46.632812 51.371094-20.480468c25.050781-10.109375 53.640625 1.039062 65.238281 25.4375 11.601563 24.398437 2.199219 53.609375-21.457031 66.65625l-33.207031 18.402344-243.921875 243.917968-18.398438 33.207032c-13.109375 23.542968-42.246093 32.859374-66.582031 21.285156-24.332031-11.578125-35.492188-40.058594-25.496094-65.082032l20.476563-51.371093zm0 0" fill="#ecaf4a"/><path d="m318.550781 46.632812-272 272-9.117187 22.863282 81.535156 56.398437c1.917969 1.335938 3.921875 2.550781 5.992188 3.640625l11.613281-20.984375 243.921875-243.917969 20.984375-11.617187c-1.035157-1.976563-2.191407-3.886719-3.457031-5.71875l-56.609376-81.785156zm0 0" fill="#d69f44"/><path d="m203.71875 82.496094 63.527344-50.175782c6.941406-5.46875 15.832031-7.832031 24.570312-6.523437 8.742188 1.304687 16.550782 6.160156 21.589844 13.417969l5.144531 7.417968 59.738281 86.316407c.808594 1.183593 1.546876 2.410156 2.207032 3.683593 7.066406 13.863282 3.152344 30.800782-9.28125 40.160157l-51.414063 38.527343-104.535156 104.535157-38.53125 51.398437c-9.355469 12.433594-26.292969 16.347656-40.160156 9.28125-1.269531-.660156-2.496094-1.398437-3.679688-2.207031l-86.320312-59.738281-7.375-5.125c-7.257813-5.039063-12.113281-12.851563-13.417969-21.59375-1.304688-8.738282 1.054688-17.628906 6.523438-24.566406l50.175781-63.53125zm0 0" fill="#ecaf4a"/><path d="m203.71875 82.496094-121.277344 121.277344-14.898437 18.859374 131.128906 114.664063 2.03125 1.980469 14.554687-19.421875 104.542969-104.542969 19.464844-14.585938-2.152344-2.152343-114.539062-130.976563zm0 0" fill="#d69f44"/><path d="m203.71875 82.496094-121.277344 121.277344-14.898437 18.859374 131.128906 114.664063 2.03125 1.980469 14.554687-19.421875 104.542969-104.542969 19.464844-14.585938-2.152344-2.152343-114.539062-130.976563zm0 0" fill="#d69f44"/><path d="m203.441406 82.207031.277344.289063 115.855469 132.480468c.109375.089844.1875.207032.226562.34375 10.835938 12.667969 10.097657 31.542969-1.695312 43.328126l-59.511719 59.511718c-11.785156 11.792969-30.660156 12.53125-43.328125 1.695313-.136719-.039063-.253906-.117188-.34375-.222657l-132.480469-115.859374-.289062-.277344c-6.667969-5.851563-10.613282-14.199219-10.902344-23.0625-.289062-8.863282 3.105469-17.449219 9.375-23.722656l76-76c6.265625-6.285157 14.859375-9.691407 23.730469-9.40625 8.871093.28125 17.230469 4.230468 23.085937 10.902343zm0 0" fill="#ecaf4a"/><g fill="#d18b29"><path d="m75.496094 259.550781h16v16h-16zm0 0"/><path d="m163.496094 315.550781h16v16h-16zm0 0"/><path d="m67.496094 387.550781h16v16h-16zm0 0"/><path d="m99.496094 315.550781h16v16h-16zm0 0"/><path d="m283.496094 115.542969h16v16h-16zm0 0"/><path d="m387.496094 67.550781h16v16h-16zm0 0"/><path d="m275.496094 59.550781h16v16h-16zm0 0"/><path d="m331.496094 139.550781h16v16h-16zm0 0"/><path d="m115.496094 163.550781h16v16h-16zm0 0"/><path d="m171.488281 131.550781h16v16h-16zm0 0"/><path d="m195.496094 203.550781h16v16h-16zm0 0"/><path d="m259.488281 203.550781h16.007813v16h-16.007813zm0 0"/><path d="m227.488281 275.542969h16v16h-16zm0 0"/></g></svg>